<svg width="100" height="100" viewBox="0 0 100 100" fill="none" xmlns="http://www.w3.org/2000/svg">
<path d="M50 100C63.2604 100 75.9793 94.7319 85.3553 85.3553C94.7319 75.9779 100 63.2604 100 50C100 36.7396 94.7319 24.0207 85.3553 14.6447C75.9779 5.26813 63.2604 0 50 0C36.7396 0 24.0207 5.26813 14.6447 14.6447C5.26813 24.0221 0 36.7396 0 50C0 63.2604 5.26813 75.9793 14.6447 85.3553C24.0221 94.7319 36.7396 100 50 100ZM24.046 51.318C24.8976 50.4718 26.0496 49.9963 27.2504 49.9963C28.452 49.9963 29.6033 50.4718 30.4555 51.318L40.9096 61.7729L67.2278 35.4546C68.3982 34.4525 69.9962 34.1115 71.4732 34.5483C72.951 34.9851 74.1062 36.141 74.543 37.6181C74.9805 39.0959 74.6389 40.6939 73.6367 41.8643L44.0905 71.4104L44.0913 71.4097C43.239 72.2566 42.0877 72.7315 40.8861 72.7315C39.6853 72.7315 38.5333 72.2566 37.6818 71.4097L24.0454 57.7733C23.1847 56.9203 22.7008 55.7582 22.7008 54.5461C22.7008 53.3347 23.1847 52.1726 24.0454 51.319L24.046 51.318Z" fill="#214290"/>
</svg>
