<svg width="100" height="100" viewBox="0 0 100 100" fill="none" xmlns="http://www.w3.org/2000/svg">
<path d="M50 0C22.3875 0 0 22.3875 0 50C0 77.6125 22.3875 100 50 100C77.6125 100 100 77.6125 100 50C100 22.3875 77.6125 0 50 0ZM74.4143 35.7089C74.0237 37.4668 73.3205 39.0543 72.1368 40.4202C71.8006 40.8108 71.4706 41.2014 71.1058 41.553C61.8271 50.7389 52.5433 59.9191 43.2558 69.0923C42.9677 69.3734 42.6211 69.5861 42.2402 69.7152C37.5004 71.2505 32.7572 72.7718 28.0097 74.2798C26.8259 74.6565 25.8339 74.192 25.6114 73.108H25.6107C25.5542 72.7104 25.5919 72.3051 25.7203 71.9242C27.0777 67.3483 28.4742 62.7878 29.8065 58.2035C30.0653 57.2842 30.5634 56.4499 31.2497 55.7858C39.7897 47.2778 48.3138 38.7539 56.8212 30.2144C58.9403 28.0792 61.0922 26.1728 64.1956 25.5869H66.1153C66.1487 25.7822 66.1794 25.6553 66.215 25.6609C69.2131 26.1533 71.2695 27.9892 72.9707 30.3484H72.9714C73.7269 31.4079 74.2214 32.63 74.4146 33.9169L74.4143 35.7089Z" fill="#214290"/>
</svg>
