<svg width="100" height="100" viewBox="0 0 100 100" fill="none" xmlns="http://www.w3.org/2000/svg">
<path d="M50.4118 31.5205C48.8607 31.5227 47.4267 32.351 46.6515 33.6947H54.1734H54.1727C53.3967 32.351 51.9636 31.5227 50.4116 31.5205H50.4118Z" fill="#BE3044"/>
<path d="M50 0C36.7387 0 24.0208 5.26777 14.6443 14.6443C5.26777 24.0215 0 36.7383 0 50C0 63.2617 5.26777 75.9792 14.6443 85.3557C24.0215 94.7322 36.7383 100 50 100C63.2617 100 75.9792 94.7322 85.3557 85.3557C94.7322 75.9785 100 63.2617 100 50C100 36.7383 94.7322 24.0208 85.3557 14.6443C75.9785 5.26777 63.2617 0 50 0ZM65.2178 43.7279L61.9569 71.9897C61.8288 73.0917 60.892 73.9207 59.7827 73.9135H40.2173C39.108 73.9207 38.1713 73.0917 38.0431 71.9897L34.7822 43.7279C34.6446 42.5276 35.5057 41.4423 36.7067 41.304C37.9069 41.1664 38.9923 42.0275 39.1305 43.2285L42.152 69.5655H57.848L60.8694 43.2285C61.0077 42.0275 62.093 41.1665 63.2933 41.304C64.4943 41.4423 65.3553 42.5276 65.2178 43.7279ZM66.3046 38.0431H33.6954C32.4952 38.0431 31.5213 37.0699 31.5213 35.8696C31.5213 34.6686 32.4952 33.6954 33.6954 33.6954H41.9998C42.6527 31.1967 44.3829 29.1171 46.7216 28.0209C49.0603 26.9247 51.7657 26.9247 54.1045 28.0209C56.4424 29.1171 58.1733 31.1967 58.8263 33.6954H66.3046C67.5048 33.6954 68.4787 34.6686 68.4787 35.8696C68.4787 37.0699 67.5048 38.0431 66.3046 38.0431Z" fill="#BE3044"/>
</svg>
